<svg width="63" height="65" viewBox="0 0 63 65" fill="none" xmlns="http://www.w3.org/2000/svg">
<rect y="0.282715" width="62.5157" height="63.8458" rx="17.2916" fill="#006380"/>
<g clip-path="url(#clip0_4023_482)">
<path d="M42.842 27.8664C40.6444 24.5447 37.6224 21.7365 34.0175 19.6664C32.3931 18.7305 30.5413 18.1703 28.6239 18.0347C26.7064 17.8991 24.7816 18.1923 23.0175 18.8887C21.4745 19.5503 20.1318 20.5435 19.1054 21.7825C18.079 23.0214 17.3998 24.4688 17.1264 25.9998C17.0286 26.5442 16.9431 27.1109 16.8698 27.5553H15.6475C15.2288 27.5509 14.8132 27.6221 14.4249 27.7648C14.0366 27.9074 13.6833 28.1187 13.3854 28.3863C13.0876 28.654 12.8511 28.9727 12.6897 29.3241C12.5284 29.6754 12.4453 30.0524 12.4453 30.4331V39.9331C12.4453 40.1865 12.5561 40.4296 12.7532 40.6088C12.9503 40.788 13.2177 40.8887 13.4964 40.8887H15.6109V40.4553C15.6077 39.4265 15.877 38.4121 16.396 37.4979C16.9149 36.5836 17.6682 35.7963 18.5924 35.2024C19.5165 34.6086 20.5842 34.2256 21.7055 34.0859C22.8267 33.9462 23.9684 34.0539 25.0342 34.3998L23.812 35.5109C22.836 35.3477 21.8297 35.4244 20.8972 35.733C19.9647 36.0416 19.1397 36.571 18.5075 37.2664C18.1816 37.5637 17.9203 37.9143 17.7375 38.2998C17.3615 38.9614 17.1527 39.691 17.1265 40.4353C17.1003 41.1796 17.2573 41.9199 17.5861 42.602C17.9149 43.2841 18.4071 43.8908 19.0268 44.3778C19.6465 44.8648 20.3781 45.2199 21.1681 45.4169C21.958 45.614 22.7865 45.6482 23.5928 45.517C24.3992 45.3858 25.1631 45.0925 25.8288 44.6585C26.4945 44.2245 27.0452 43.6608 27.4406 43.0086C27.836 42.3564 28.0661 41.6321 28.1142 40.8887H34.812V40.4553C34.8096 39.4279 35.0788 38.4149 35.5971 37.5018C36.1153 36.5887 36.8674 35.8022 37.79 35.2086C38.7125 34.615 39.7784 34.2317 40.898 34.0909C42.0176 33.9502 43.158 34.0561 44.2231 34.3998L43.0009 35.5109C42.0248 35.3477 41.0186 35.4244 40.0861 35.733C39.1536 36.0416 38.3286 36.571 37.6964 37.2664C37.3705 37.5637 37.1092 37.9143 36.9264 38.2998C36.5555 38.9613 36.3513 39.6896 36.3286 40.4318C36.3059 41.174 36.4653 41.9115 36.7953 42.5907C37.1253 43.2699 37.6175 43.8738 38.2363 44.3585C38.855 44.8432 39.5847 45.1965 40.3724 45.3928C41.1601 45.589 41.986 45.6234 42.7902 45.4933C43.5943 45.3632 44.3564 45.0719 45.0213 44.6406C45.6861 44.2093 46.2369 43.6488 46.6337 42.9998C47.0305 42.3508 47.2634 41.6297 47.3153 40.8887H50.5053C50.7841 40.8887 51.0514 40.788 51.2486 40.6088C51.4457 40.4296 51.5564 40.1865 51.5564 39.9331V37.9553C51.5472 35.6316 50.6849 33.3772 49.1062 31.5496C47.5276 29.7219 45.323 28.4257 42.842 27.8664ZM24.6675 27.5553H19.7786C19.7786 27.1664 19.9009 26.7664 19.9742 26.3664C20.1795 25.1517 20.7214 24.0044 21.5489 23.0326C22.3763 22.0607 23.4622 21.2961 24.7042 20.8109L24.6675 27.5553ZM22.6631 43.5109C22.0588 43.5109 21.468 43.348 20.9655 43.0428C20.463 42.7375 20.0714 42.3037 19.8401 41.7961C19.6089 41.2886 19.5483 40.73 19.6662 40.1912C19.7841 39.6524 20.0752 39.1574 20.5025 38.7689C20.9298 38.3805 21.4743 38.1159 22.067 38.0087C22.6597 37.9015 23.2741 37.9565 23.8324 38.1668C24.3907 38.377 24.8679 38.7331 25.2037 39.1899C25.5394 39.6467 25.7186 40.1837 25.7186 40.7331C25.7186 41.4698 25.3967 42.1764 24.8237 42.6973C24.2507 43.2182 23.4735 43.5109 22.6631 43.5109ZM33.2231 33.1109H29.5564V30.8887H33.2231V33.1109ZM25.8898 27.5553V20.2998C28.1862 20.0156 30.5199 20.4674 32.4898 21.5776C35.1964 23.1243 37.5257 25.1587 39.3342 27.5553H25.8898ZM41.852 43.5109C41.2476 43.5109 40.6569 43.348 40.1544 43.0428C39.6519 42.7375 39.2603 42.3037 39.029 41.7961C38.7977 41.2886 38.7372 40.73 38.8551 40.1912C38.973 39.6524 39.264 39.1574 39.6914 38.7689C40.1187 38.3805 40.6632 38.1159 41.2559 38.0087C41.8486 37.9015 42.463 37.9565 43.0213 38.1668C43.5796 38.377 44.0568 38.7331 44.3926 39.1899C44.7283 39.6467 44.9075 40.1837 44.9075 40.7331C44.9075 41.4698 44.5856 42.1764 44.0126 42.6973C43.4396 43.2182 42.6624 43.5109 41.852 43.5109Z" fill="white"/>
</g>
<defs>
<clipPath id="clip0_4023_482">
<rect width="44" height="40" fill="white" transform="translate(10 12)"/>
</clipPath>
</defs>
</svg>
