<svg width="63" height="65" viewBox="0 0 63 65" fill="none" xmlns="http://www.w3.org/2000/svg">
<rect y="0.337891" width="62.5157" height="63.8458" rx="17.2916" fill="#F0BB1F"/>
<path fill-rule="evenodd" clip-rule="evenodd" d="M24.4023 28.9154C24.4023 26.7679 25.2554 24.7084 26.7739 23.1899C28.2924 21.6714 30.3519 20.8184 32.4994 20.8184C34.6468 20.8184 36.7063 21.6714 38.2248 23.1899C39.7433 24.7084 40.5964 26.7679 40.5964 28.9154C40.5964 31.0628 39.7433 33.1223 38.2248 34.6408C36.7063 36.1593 34.6468 37.0124 32.4994 37.0124C30.3519 37.0124 28.2924 36.1593 26.7739 34.6408C25.2554 33.1223 24.4023 31.0628 24.4023 28.9154ZM32.4994 23.3753C31.03 23.3753 29.6209 23.959 28.5819 24.998C27.543 26.0369 26.9593 27.4461 26.9593 28.9154C26.9593 30.3847 27.543 31.7938 28.5819 32.8328C29.6209 33.8718 31.03 34.4554 32.4994 34.4554C33.9687 34.4554 35.3778 33.8718 36.4168 32.8328C37.4557 31.7938 38.0394 30.3847 38.0394 28.9154C38.0394 27.4461 37.4557 26.0369 36.4168 24.998C35.3778 23.959 33.9687 23.3753 32.4994 23.3753Z" fill="white"/>
<path fill-rule="evenodd" clip-rule="evenodd" d="M18.0515 26.9672C18.3429 23.4331 19.9526 20.1379 22.561 17.7357C25.1694 15.3335 28.5858 14 32.1318 14H32.8682C36.4143 14 39.8306 15.3335 42.439 17.7357C45.0475 20.1379 46.6571 23.4331 46.9485 26.9672C47.2727 30.9036 46.0566 34.8123 43.5563 37.87L35.386 47.8609C35.0363 48.2884 34.596 48.633 34.0969 48.8696C33.5978 49.1062 33.0524 49.2289 32.5 49.2289C31.9477 49.2289 31.4022 49.1062 30.9031 48.8696C30.404 48.633 29.9637 48.2884 29.6141 47.8609L21.4438 37.87C18.9433 34.8124 17.7271 30.9037 18.0515 26.9672ZM32.1318 16.557C29.2279 16.5574 26.4304 17.6497 24.2945 19.617C22.1585 21.5843 20.8404 24.2828 20.6017 27.1768C20.3317 30.4529 21.3437 33.7059 23.4246 36.2506L31.5949 46.2432C31.7047 46.3776 31.843 46.4859 31.9999 46.5603C32.1567 46.6347 32.3281 46.6733 32.5017 46.6733C32.6753 46.6733 32.8467 46.6347 33.0036 46.5603C33.1604 46.4859 33.2988 46.3776 33.4086 46.2432L41.5789 36.2506C43.6586 33.7054 44.6693 30.4524 44.3984 27.1768C44.1596 24.2825 42.8413 21.5837 40.705 19.6164C38.5687 17.6491 35.7707 16.557 32.8665 16.557H32.1318Z" fill="white"/>
</svg>
