<svg width="63" height="65" viewBox="0 0 63 65" fill="none" xmlns="http://www.w3.org/2000/svg">
<rect y="0.311035" width="62.5157" height="63.8458" rx="17.2916" fill="#F15A2B"/>
<path d="M37.3571 38C37.073 38 36.8005 38.158 36.5995 38.4393C36.3986 38.7206 36.2857 39.1022 36.2857 39.5C36.2857 39.8978 36.3986 40.2794 36.5995 40.5607C36.8005 40.842 37.073 41 37.3571 41H41.6429C41.927 41 42.1995 40.842 42.4005 40.5607C42.6014 40.2794 42.7143 39.8978 42.7143 39.5C42.7143 39.1022 42.6014 38.7206 42.4005 38.4393C42.1995 38.158 41.927 38 41.6429 38H37.3571ZM17 24.5C17 22.5109 17.5644 20.6032 18.5691 19.1967C19.5737 17.7902 20.9363 17 22.3571 17H41.6429C43.0637 17 44.4263 17.7902 45.4309 19.1967C46.4356 20.6032 47 22.5109 47 24.5V39.5C47 41.4891 46.4356 43.3968 45.4309 44.8033C44.4263 46.2098 43.0637 47 41.6429 47H22.3571C20.9363 47 19.5737 46.2098 18.5691 44.8033C17.5644 43.3968 17 41.4891 17 39.5V24.5ZM44.8571 26V24.5C44.8571 23.3065 44.5185 22.1619 43.9157 21.318C43.3129 20.4741 42.4953 20 41.6429 20H22.3571C21.5047 20 20.6871 20.4741 20.0843 21.318C19.4815 22.1619 19.1429 23.3065 19.1429 24.5V26H44.8571ZM19.1429 29V39.5C19.1429 40.6935 19.4815 41.8381 20.0843 42.682C20.6871 43.5259 21.5047 44 22.3571 44H41.6429C42.4953 44 43.3129 43.5259 43.9157 42.682C44.5185 41.8381 44.8571 40.6935 44.8571 39.5V29H19.1429Z" fill="white"/>
</svg>
