<svg width="252" height="18" viewBox="0 0 252 18" fill="none" xmlns="http://www.w3.org/2000/svg">
<path d="M5.46748 8.95138C7.44049 8.95138 9.50746 8.85814 11.4805 8.7649C12.326 8.7649 13.0777 8.67165 13.9232 8.67165C17.4935 8.48517 21.0637 8.29868 24.6339 8.11219C28.9557 7.9257 33.1836 7.64597 37.5054 7.45949C43.6124 7.08651 49.7193 6.80678 55.8263 6.43381C57.2355 6.34056 58.6448 6.34056 60.0541 6.24732C63.6243 6.06083 67.1946 5.87435 70.7648 5.7811C74.335 5.59461 77.9052 5.40813 81.4754 5.31488C82.8847 5.22164 84.294 5.1284 85.7033 5.1284C91.3405 4.94191 97.0716 4.75542 102.709 4.56894C106.185 4.47569 109.661 4.38245 113.231 4.19596C114.641 4.19596 115.956 4.10272 117.365 4.10272C122.815 4.00947 128.358 3.91623 133.807 3.82299C139.256 3.72974 144.612 3.6365 150.061 3.54326C151.47 3.54326 152.88 3.54326 154.383 3.54326C157.953 3.54326 161.429 3.54326 165 3.54326C170.543 3.54326 175.992 3.54326 181.535 3.45001C183.32 3.45001 185.105 3.45001 186.891 3.45001C190.649 3.45001 194.407 3.45001 198.165 3.45001C198.447 3.45001 198.823 3.45001 199.104 3.45001C190.649 3.54326 182.099 3.6365 173.643 3.82299C170.073 3.91623 166.597 3.91623 163.027 4.00947C161.523 4.00947 159.926 4.00947 158.423 4.10272C153.255 4.19596 148.182 4.38245 143.015 4.47569C137.096 4.66218 131.177 4.75542 125.257 4.94191C124.224 4.94191 123.284 5.03515 122.251 5.03515C119.057 5.22164 115.956 5.31488 112.762 5.50137C106.373 5.7811 99.9841 6.06083 93.5953 6.34056C92.6558 6.34056 91.7163 6.43381 90.7767 6.52705C87.6763 6.71354 84.4819 6.99327 81.3814 7.17976C75.7443 7.55273 70.201 7.9257 64.5639 8.29868C63.0606 8.39192 61.4634 8.57841 59.9602 8.67165C56.39 8.95138 52.8198 9.23111 49.2496 9.60409C44.7398 9.97706 40.1361 10.35 35.6264 10.723C29.3315 11.2825 22.9427 11.8419 16.6479 12.4014C15.1446 12.4946 13.6414 12.6811 12.0442 12.7744C9.31955 13.0541 6.59492 13.3338 3.87028 13.6136C3.58842 13.6136 3.30656 13.8 3.30656 14.173C3.30656 14.4528 3.58842 14.7325 3.87028 14.7325C4.90376 14.7325 5.84329 14.8257 6.87677 14.8257C6.68887 15.2919 6.59492 15.5717 6.59492 15.8514C6.59492 16.8771 7.44049 17.8095 8.56793 17.8095C16.366 17.3433 24.0702 16.7838 31.8683 16.4109C38.6329 16.1311 45.3975 15.7582 52.1621 15.4784C59.5844 15.1055 67.1006 14.7325 74.5229 14.4528C76.8717 14.3595 79.2205 14.2663 81.5694 14.0798C82.227 14.0798 82.8847 13.9865 83.6363 13.9865C95.6623 13.7068 107.688 13.3338 119.714 13.0541C126.103 12.8676 132.586 12.6811 138.975 12.5879C141.323 12.4946 143.578 12.4946 145.927 12.4014C158.235 12.2149 170.543 12.0284 182.851 11.8419C188.112 11.7487 193.373 11.6554 198.635 11.5622C203.144 11.469 207.654 11.469 212.164 11.2825C215.922 11.1892 219.586 11.0027 223.344 10.9095C225.223 10.8163 227.102 10.8163 228.888 10.723C233.115 10.4433 237.343 10.1635 241.571 9.88382C241.289 10.2568 241.289 10.8163 241.383 11.1892C241.477 11.6554 241.759 12.0284 242.229 12.2149C242.605 12.4014 243.168 12.5879 243.544 12.4014C244.484 12.0284 245.423 11.6554 246.269 11.2825C246.269 11.2825 246.269 11.2825 246.175 11.2825C246.269 11.2825 246.269 11.1892 246.363 11.1892C246.457 11.1892 246.551 11.096 246.551 11.096H246.457C246.927 10.9095 247.396 10.723 247.96 10.4433C248.43 10.2568 248.993 9.97706 249.463 9.79058C250.027 9.51085 250.497 9.23111 251.06 8.95138C251.624 8.67165 252 7.9257 252 7.273C252 6.90002 251.906 6.62029 251.718 6.24732C251.53 5.87435 251.06 5.40813 250.591 5.31488C250.121 5.22164 249.651 5.1284 249.181 5.1284C249.087 5.1284 248.993 5.1284 248.9 5.1284C248.618 5.1284 248.242 5.1284 247.96 5.22164C247.208 5.31488 246.551 5.40813 245.799 5.40813C245.235 5.40813 244.672 5.50137 244.014 5.50137C242.417 5.59461 240.914 5.68786 239.316 5.87435C238.941 5.87435 238.471 5.96759 238.095 5.96759C238.283 5.7811 238.377 5.59461 238.377 5.40813C238.471 5.22164 238.471 5.03515 238.471 4.84867C238.471 4.75542 238.471 4.56894 238.565 4.47569C238.565 4.2892 238.565 4.10272 238.471 4.00947C238.471 4.00947 238.565 4.00947 238.565 3.91623C238.847 3.72974 239.128 3.54326 239.316 3.17028C239.504 2.89055 239.598 2.51758 239.598 2.1446C239.598 1.77163 239.504 1.4919 239.316 1.11892C239.222 1.02568 239.128 0.839192 239.034 0.745949C238.753 0.466218 238.471 0.372974 238.189 0.279731C237.625 0.0932436 236.968 0 236.31 0C235.746 0 235.276 0 234.713 0C233.961 0 233.209 0 232.458 0C231.424 0 230.297 0 229.263 0C226.445 0 223.626 0 220.808 0C218.177 0 215.452 0 212.822 0C210.379 0 208.03 0 205.587 0C195.91 0 186.327 0.0932436 176.65 0.186487C169.415 0.279731 162.181 0.372974 154.947 0.372974C151.752 0.372974 148.464 0.466218 145.269 0.559462C138.035 0.745949 130.801 0.839192 123.566 1.02568C121.499 1.02568 119.432 1.11892 117.365 1.11892C116.144 1.11892 115.017 1.21217 113.795 1.21217C106.655 1.4919 99.5144 1.77163 92.3739 2.05136C90.213 2.1446 88.0521 2.23785 85.7972 2.33109C84.5759 2.33109 83.3545 2.42433 82.1331 2.51758C74.9927 2.89055 67.9462 3.26353 60.8058 3.6365C57.1416 3.82299 53.4774 4.00947 49.8133 4.2892C43.5184 4.66218 37.2236 5.03515 31.0227 5.50137C25.5734 5.87435 20.1241 6.15408 14.6749 6.43381C13.8293 6.52705 12.9837 6.52705 12.0442 6.62029C10.6349 6.71354 9.2256 6.71354 7.8163 6.80678C6.59492 7.17976 5.27957 7.17976 4.05819 7.17976C3.96423 6.80678 3.58842 6.52705 3.30656 6.62029C2.46099 6.62029 1.70936 6.71354 0.863786 6.80678C0.487974 6.90002 0.112162 7.08651 0.0182095 7.45949C-0.0757435 7.9257 0.206115 8.39192 0.581927 8.48517C0.957739 8.57841 1.33355 8.67165 1.70936 8.7649C2.08517 8.85814 2.36703 8.85814 2.74284 8.85814C3.68237 8.95138 4.52795 8.95138 5.46748 8.95138ZM225.317 5.96759C226.445 5.96759 227.666 5.96759 228.794 5.96759C228.888 6.24732 229.075 6.43381 229.263 6.62029C228.794 6.62029 228.324 6.71354 227.948 6.71354C227.102 6.71354 226.257 6.80678 225.411 6.80678C221.653 6.90002 217.989 7.08651 214.231 7.17976C212.54 7.273 210.849 7.36624 209.157 7.36624C206.527 7.36624 203.802 7.45949 201.171 7.45949C195.065 7.55273 189.052 7.64597 182.945 7.73922C171.106 7.9257 159.362 8.11219 147.524 8.29868C139.069 8.39192 130.613 8.67165 122.157 8.95138C109.473 9.32436 96.6958 9.60409 84.0121 9.97706C81.4754 10.0703 78.9387 10.1635 76.4019 10.35C69.1676 10.723 61.9332 11.0027 54.6988 11.3757C47.6523 11.7487 40.5119 12.0284 33.4655 12.4014C32.8078 12.4014 32.1501 12.4946 31.4924 12.4946C33.3715 12.3082 35.3445 12.2149 37.2236 12.0284C43.8942 11.5622 50.5649 11.0027 57.2355 10.5365C59.5844 10.35 61.9332 10.1636 64.1881 9.97706C65.4095 9.88382 66.6308 9.79058 67.7583 9.79058C74.8047 9.4176 81.7573 8.95138 88.7098 8.57841C90.0251 8.48517 91.4344 8.39192 92.7498 8.29868C94.7228 8.20543 96.6958 8.11219 98.5748 8.11219C105.715 7.83246 112.856 7.55273 119.996 7.273C121.593 7.17976 123.191 7.17976 124.694 7.08651C125.07 7.08651 125.539 7.08651 125.915 7.08651C127.043 7.08651 128.17 7.08651 129.203 6.99327C136.344 6.80678 143.578 6.71354 150.719 6.52705C154.007 6.43381 157.295 6.34056 160.584 6.34056C171.2 6.24732 181.911 6.15408 192.528 6.06083C203.614 6.06083 214.513 5.96759 225.317 5.96759Z" fill="url(#paint0_linear_4110_428)"/>
<defs>
<linearGradient id="paint0_linear_4110_428" x1="-1.87755e-06" y1="8.90476" x2="252" y2="8.90467" gradientUnits="userSpaceOnUse">
<stop stop-color="#FAD961"/>
<stop offset="1" stop-color="#F76B1C"/>
</linearGradient>
</defs>
</svg>
